<svg xmlns="http://www.w3.org/2000/svg" xmlns:xlink="http://www.w3.org/1999/xlink" viewBox="0,0,256,256" width="480px" height="480px" fill-rule="nonzero"><g fill-opacity="0" fill="#000000" fill-rule="nonzero" stroke="none" stroke-width="1" stroke-linecap="butt" stroke-linejoin="miter" stroke-miterlimit="10" stroke-dasharray="" stroke-dashoffset="0" font-family="none" font-weight="none" font-size="none" text-anchor="none" style="mix-blend-mode: normal"><g transform="scale(3.2,3.2)"><path d="M41.0332,7.45508c-5.13551,0 -9.09804,1.03775 -11.83984,3.04492c-0.50129,0.36698 -0.94324,0.77798 -1.35547,1.20898c-1.47767,-0.89165 -3.24387,-1.25391 -4.92969,-1.25391h-17.875c-0.38844,0.00031 -0.74155,0.22552 -0.90566,0.57758c-0.1641,0.35207 -0.1095,0.76731 0.14003,1.06499c0,0 8.19389,9.97631 18.79102,11.71875c-0.33774,0.65247 -0.53475,1.40891 -0.69336,2.23047c-0.29882,1.54782 -0.39983,3.33747 -0.43555,4.93359c-2.36224,2.43037 -4.38841,6.04109 -5.92383,9.18164l-0.25,-0.09375c-1.43866,-0.53815 -3.0678,0.20369 -3.60742,1.64063l-1.39649,3.72656c-0.53815,1.43866 0.20286,3.06903 1.64063,3.60742l1.67383,0.62695c-0.36649,0.80134 -0.70798,1.75751 -0.80078,2.79102c-0.06856,0.76357 0.0055,1.5819 0.375,2.3457c0.36953,0.7638 1.04323,1.43144 1.9707,1.86719c1.53753,0.72237 3.03268,0.51405 4.14844,-0.10352l-2.30859,9.83203l-0.00586,0.05078c-0.3008,2.30194 1.09773,4.5174 3.32813,5.19727c3.83733,1.16974 12.38556,2.80469 20.00977,2.80469c7.62421,0 16.17224,-1.63533 20.00977,-2.80273c2.2291,-0.67985 3.63085,-2.8943 3.33008,-5.19727l-0.00781,-0.05078l-2.30859,-9.83398c1.11597,0.61694 2.61158,0.82556 4.14844,0.10352c0.92747,-0.43575 1.60117,-1.10338 1.9707,-1.86719c0.36953,-0.7638 0.44356,-1.58214 0.375,-2.3457c-0.0928,-1.03351 -0.43566,-1.98968 -0.80273,-2.79102l1.67383,-0.62695c1.43876,-0.53818 2.18051,-2.16935 1.64258,-3.60742l-1.39648,-3.72656c-0.53962,-1.43693 -2.16876,-2.17877 -3.60742,-1.64062l-0.25,0.09375c-1.53542,-3.14055 -3.56159,-6.75127 -5.92383,-9.18164c-0.03572,-1.59612 -0.13673,-3.38577 -0.43555,-4.93359c-0.15742,-0.81541 -0.35437,-1.56573 -0.6875,-2.21484c10.85139,-1.69583 19.2793,-11.72461 19.2793,-11.72461c0.25513,-0.29655 0.31393,-0.71463 0.15051,-1.07005c-0.16343,-0.35542 -0.51908,-0.58293 -0.91027,-0.58229h-18.25977c-1.60239,0 -3.27676,0.30808 -4.7168,1.07227c-0.36531,-0.36329 -0.75247,-0.71174 -1.18359,-1.02734c-2.74181,-2.00718 -6.70433,-3.04492 -11.83984,-3.04492zM41.0332,9.45508c4.86349,0 8.39976,1.00488 10.6582,2.6582c2.25844,1.65332 3.3418,3.92047 3.3418,6.9043c0,1.53711 -0.40036,2.89485 -1.08789,4.0957c-2.6894,1.53405 -5.22328,3.8418 -13.16211,3.8418c-7.51765,0 -10.18652,-2.06336 -12.73242,-3.58594l0.1543,-0.09375c-0.74548,-1.24038 -1.17187,-2.65283 -1.17187,-4.25781c0,-2.98383 1.08335,-5.25097 3.3418,-6.9043c2.25844,-1.65332 5.79472,-2.6582 10.6582,-2.6582zM7.36328,12.45508h15.54492c1.30846,0 2.62839,0.27959 3.68359,0.84375c-0.4574,0.73546 -0.80852,1.53229 -1.06445,2.375l-0.14648,-0.15625l-0.34766,-0.0625l-0.80078,0.40234l-0.1582,0.88281l0.61133,0.6543l0.34766,0.06055l0.11914,-0.06055c-0.07129,0.5294 -0.11914,1.06701 -0.11914,1.62305c0,1.06824 0.17028,2.0792 0.46289,3.03125c-6.01324,-0.25523 -11.57544,-3.88945 -15.23633,-6.95508l0.02148,-0.00977l0.1582,-0.88086l-0.61328,-0.6543l-0.3457,-0.0625l-0.67773,0.33789c-0.54696,-0.49941 -1.03473,-0.96523 -1.43945,-1.36914zM58.77344,12.45508h15.89453c-0.41482,0.40521 -0.91466,0.87275 -1.47461,1.37305l-0.25977,-0.2793l-0.34766,-0.0625l-0.80078,0.40039l-0.1582,0.88281l0.20508,0.21875c-3.65039,3.01502 -9.20229,6.62611 -15.25391,7.03906c0.28841,-0.94581 0.45508,-1.95012 0.45508,-3.00977c0,-0.54157 -0.04564,-1.06568 -0.11328,-1.58203l0.11328,0.01953l0.80078,-0.40039l0.1582,-0.88281l-0.61133,-0.6543l-0.34766,-0.0625l-0.48633,0.24414c-0.27613,-0.91758 -0.65953,-1.78432 -1.17383,-2.57422c1.01227,-0.44472 2.21064,-0.66992 3.40039,-0.66992zM13.4707,13.75195l-0.80078,0.40039l-0.1582,0.88281l0.61133,0.6543l0.34766,0.0625l0.80078,-0.40234l0.1582,-0.88086l-0.61133,-0.6543zM68.5957,13.75195l-0.80078,0.40039l-0.1582,0.88281l0.61133,0.6543l0.34766,0.0625l0.80078,-0.40234l0.1582,-0.88086l-0.61328,-0.6543zM17.46094,14.01758l-0.80078,0.40234l-0.1582,0.88086l0.61328,0.6543l0.3457,0.0625l0.80273,-0.40039l0.15625,-0.88281l-0.61133,-0.6543zM64.60352,14.01758l-0.80078,0.40234l-0.1582,0.88086l0.61328,0.6543l0.3457,0.0625l0.80273,-0.40039l0.15625,-0.88281l-0.61133,-0.6543zM21.45313,14.2832l-0.80078,0.40234l-0.1582,0.88281l0.61133,0.6543l0.34766,0.06055l0.80078,-0.40039l0.1582,-0.88281l-0.61133,-0.6543zM60.61328,14.2832l-0.80078,0.40234l-0.1582,0.88281l0.61133,0.6543l0.34766,0.06055l0.80078,-0.40039l0.1582,-0.88281l-0.61133,-0.6543zM34.24023,16.45703c-1.92767,0.04724 -3.87872,0.95702 -4.72266,2.57227c0,1.847 5.78462,5.54066 9.64063,1.84766c0,-3.11569 -2.43954,-4.48066 -4.91797,-4.41992zM47.14258,16.45703c-2.57484,-0.06073 -5.10937,1.30423 -5.10937,4.41992c4.006,3.693 10.01563,-0.00066 10.01563,-1.84766c-0.87675,-1.61525 -2.9036,-2.52503 -4.90625,-2.57227zM39.1582,23.08008c0,0.897 0.728,1.625 1.625,1.625c0.897,0 1.625,-0.728 1.625,-1.625zM25.30859,24.22266c0.03677,0.00343 0.09393,0.01747 0.1875,0.05664h0.00195l0.00195,0.00195c2.52112,1.04497 5.57136,4.67383 15.2832,4.67383c1.24728,0 2.38136,-0.06142 3.42188,-0.16797c-0.14944,0.98947 -0.45284,2.53488 -1.11719,4.10352c-0.52937,1.24993 -1.26798,2.43859 -2.23437,3.24805c-0.96639,0.80945 -2.13115,1.28471 -3.78516,1.15625v0.00391c-1.50472,-0.12122 -3.24738,-0.2953 -5.05664,-0.59961c-2.18642,-0.36775 -4.35951,-0.90797 -5.88672,-1.62305c-0.7636,-0.35754 -1.35766,-0.75878 -1.71875,-1.14453c-0.36109,-0.38575 -0.49805,-0.70894 -0.49805,-1.10156c0,-1.87724 0.05378,-4.50776 0.41992,-6.4043c0.18307,-0.94827 0.47391,-1.70459 0.70508,-2.00781c0.11558,-0.15161 0.18248,-0.17943 0.20898,-0.1875c0.01325,-0.00405 0.02963,-0.01124 0.06641,-0.00781zM56.25586,24.22266c0.03628,-0.00343 0.05316,0.00378 0.06641,0.00781c0.0265,0.0081 0.09535,0.03589 0.21094,0.1875c0.23117,0.30322 0.52006,1.05955 0.70313,2.00781c0.36614,1.89653 0.42188,4.52706 0.42188,6.4043c0,0.39245 -0.13696,0.71587 -0.49805,1.10156c-0.36109,0.38569 -0.95513,0.78701 -1.71875,1.14453c-1.52723,0.71504 -3.70029,1.25524 -5.88672,1.62305c-3.08984,0.51978 -5.60739,0.67125 -7.16211,0.74023c1.16635,-1.06731 1.96889,-2.42592 2.53711,-3.76758c0.89307,-2.10869 1.22615,-4.20174 1.34375,-5.18359c5.52214,-1.01064 7.82623,-3.39185 9.79297,-4.20703l0.00195,-0.00195h0.00195c0.09357,-0.03917 0.14926,-0.05322 0.18555,-0.05664zM22.0918,33.85352c0.17768,0.53995 0.46942,1.03499 0.85352,1.44531c0.42761,0.45681 0.94982,0.83586 1.53125,1.16992l-1.48047,6.31055l-5.10352,-1.91016c1.17732,-2.37528 2.63934,-4.98662 4.19922,-7.01562zM59.47461,33.85352c1.55988,2.029 3.0219,4.64035 4.19922,7.01563l-5.10352,1.91016l-1.48242,-6.3125c0.58124,-0.33363 1.10341,-0.71098 1.53125,-1.16797c0.38417,-0.41034 0.67723,-0.90523 0.85547,-1.44531zM55.23242,37.31445l6.9043,29.40625c0.17274,1.35383 -0.62961,2.62226 -1.92578,3.01758c-2.70892,0.82407 -8.37589,1.97561 -14.17773,2.4707v-0.75391c0.0037,-0.2703 -0.10218,-0.53059 -0.29351,-0.72155c-0.19133,-0.19097 -0.45182,-0.29634 -0.72212,-0.29212c-0.55152,0.00862 -0.99193,0.46214 -0.98437,1.01367v0.89453c-1.09617,0.06236 -2.18654,0.10547 -3.25,0.10547c-0.90174,0 -1.82266,-0.02473 -2.75,-0.07031v-0.92969c0.0037,-0.2703 -0.10218,-0.53059 -0.29351,-0.72155c-0.19133,-0.19097 -0.45182,-0.29634 -0.72212,-0.29212c-0.55152,0.00862 -0.99193,0.46214 -0.98437,1.01367v0.78906c-5.9739,-0.46944 -11.89049,-1.65877 -14.67578,-2.50781c-1.29494,-0.39472 -2.09726,-1.66114 -1.92773,-3.01172l6.9043,-29.4082c1.6191,0.61034 3.47946,1.04158 5.3457,1.35547c1.54734,0.26026 3.01792,0.42102 4.38086,0.54688c-0.01849,0.07741 -0.02766,0.15674 -0.02734,0.23633v1c-0.0051,0.36064 0.18438,0.69608 0.49587,0.87789c0.3115,0.18181 0.69676,0.18181 1.00825,0c0.3115,-0.18181 0.50097,-0.51725 0.49587,-0.87789v-1c0.00008,-0.02215 -0.00057,-0.0443 -0.00195,-0.06641c1.63368,0.10878 2.73438,0.13086 2.73438,0.13086h0.01758h0.01758c0,0 1.33329,-0.03346 3.23242,-0.17187v1.10742c-0.0051,0.36064 0.18438,0.69608 0.49587,0.87789c0.3115,0.18181 0.69676,0.18181 1.00825,0c0.3115,-0.18181 0.50097,-0.51725 0.49587,-0.87789v-1.28125c1.21957,-0.12222 2.51307,-0.27646 3.85352,-0.50195c1.86623,-0.31394 3.7266,-0.74664 5.3457,-1.35742zM14.73438,41.88672c0.10455,-0.00327 0.21348,0.01472 0.32031,0.05469l7.48047,2.80078l-1.28711,5.48242l-8.15234,-3.05469h-0.00195c-0.42619,-0.15961 -0.6286,-0.60586 -0.46875,-1.0332l1.39453,-3.72461c0.12028,-0.3203 0.4012,-0.51558 0.71484,-0.52539zM66.83008,41.88672c0.3131,0.00981 0.59456,0.20509 0.71484,0.52539l1.39648,3.72461c0.16007,0.42793 -0.04346,0.87339 -0.4707,1.0332l-8.15234,3.05469l-1.28711,-5.48242l7.48047,-2.80078c0.10684,-0.03996 0.21399,-0.05796 0.31836,-0.05469zM37.0332,42.45508l-0.80078,0.40234l-0.1582,0.88281l0.61133,0.6543l0.34766,0.06055l0.80078,-0.40039l0.1582,-0.88281l-0.61133,-0.6543zM45.0332,42.45508l-0.80078,0.40234l-0.1582,0.88281l0.61133,0.6543l0.34766,0.06055l0.80078,-0.40039l0.1582,-0.88281l-0.61133,-0.6543zM37.0332,46.45508l-0.80078,0.40234l-0.1582,0.88281l0.61133,0.6543l0.34766,0.06055l0.80078,-0.40039l0.1582,-0.88281l-0.61133,-0.6543zM45.0332,46.45508l-0.80078,0.40234l-0.1582,0.88281l0.61133,0.6543l0.34766,0.06055l0.80078,-0.40039l0.1582,-0.88281l-0.61133,-0.6543zM15.94727,50.375l4.83984,1.81445l-0.10547,0.44727c-0.36977,0.68207 -0.95702,1.53509 -1.64453,2.0293c-0.71934,0.51708 -1.41204,0.7442 -2.57617,0.19727c-0.58053,-0.27275 -0.85012,-0.57757 -1.01953,-0.92773c-0.16941,-0.35016 -0.22928,-0.78807 -0.18359,-1.29687c0.06544,-0.72875 0.36468,-1.55946 0.68945,-2.26367zM65.61914,50.375c0.32478,0.70421 0.62402,1.53492 0.68945,2.26367c0.04569,0.50881 -0.01418,0.94671 -0.18359,1.29688c-0.16941,0.35016 -0.439,0.65499 -1.01953,0.92773c-1.16413,0.54694 -1.85683,0.31982 -2.57617,-0.19727c-0.68902,-0.49529 -1.27884,-1.35041 -1.64844,-2.0332l-0.10352,-0.44531zM37.0332,50.45508l-0.80078,0.40234l-0.1582,0.88281l0.61133,0.6543l0.34766,0.06055l0.80078,-0.40039l0.1582,-0.88281l-0.61133,-0.6543zM45.0332,50.45508l-0.80078,0.40234l-0.1582,0.88281l0.61133,0.6543l0.34766,0.06055l0.80078,-0.40039l0.1582,-0.88281l-0.61133,-0.6543zM37.0332,54.45508l-0.80078,0.40234l-0.1582,0.88281l0.61133,0.6543l0.34766,0.06055l0.80078,-0.40039l0.1582,-0.88281l-0.61133,-0.6543zM45.0332,54.45508l-0.80078,0.40234l-0.1582,0.88281l0.61133,0.6543l0.34766,0.06055l0.80078,-0.40039l0.1582,-0.88281l-0.61133,-0.6543zM37.0332,58.45508l-0.80078,0.40234l-0.1582,0.88281l0.61133,0.6543l0.34766,0.06055l0.80078,-0.40039l0.1582,-0.88281l-0.61133,-0.6543zM45.0332,58.45508l-0.80078,0.40234l-0.1582,0.88281l0.61133,0.6543l0.34766,0.06055l0.80078,-0.40039l0.1582,-0.88281l-0.61133,-0.6543zM37.0332,62.45508l-0.80078,0.40234l-0.1582,0.88281l0.61133,0.6543l0.34766,0.06055l0.80078,-0.40039l0.1582,-0.88281l-0.61133,-0.6543zM45.0332,62.45508l-0.80078,0.40234l-0.1582,0.88281l0.61133,0.6543l0.34766,0.06055l0.80078,-0.40039l0.1582,-0.88281l-0.61133,-0.6543zM37.0332,66.45508l-0.80078,0.40234l-0.1582,0.88281l0.61133,0.6543l0.34766,0.06055l0.80078,-0.40039l0.1582,-0.88281l-0.61133,-0.6543zM45.0332,66.45508l-0.80078,0.40234l-0.1582,0.88281l0.61133,0.6543l0.34766,0.06055l0.80078,-0.40039l0.1582,-0.88281l-0.61133,-0.6543z"></path></g></g></svg>